<svg width="128" height="29" viewBox="0 0 128 29" fill="none" xmlns="http://www.w3.org/2000/svg">
<path fill-rule="evenodd" clip-rule="evenodd" d="M22 11C22 17.0751 17.0751 22 11 22C4.92487 22 0 17.0751 0 11C0 4.92487 4.92487 0 11 0C14.6271 0 17.8441 1.75547 19.8479 4.46314C19.5948 4.1541 19.3134 3.83573 19 3.5L16.8266 5.51814C15.3676 3.96793 13.2968 3 11 3C6.58172 3 3 6.58172 3 11C3 15.4183 6.58172 19 11 19C14.7277 19 17.8599 16.4505 18.748 13H12V10H18.9381H21H21.9552C21.9848 10.3294 22 10.6629 22 11Z" fill="#4285F4"/>
<circle cx="31" cy="15" r="5.5" stroke="#EA4436" stroke-width="3"/>
<circle cx="47" cy="15" r="5.5" stroke="#FBBC05" stroke-width="3"/>
<path fill-rule="evenodd" clip-rule="evenodd" d="M70 14.9995V23V24.4995V24.915L69.7862 25.2713L68.5 24.4995C69.7862 25.2713 69.7858 25.272 69.7853 25.2728L69.7844 25.2743L69.7824 25.2776L69.7779 25.285L69.7671 25.3024C69.7591 25.3153 69.7494 25.3305 69.7379 25.348C69.7151 25.383 69.6853 25.427 69.6483 25.4788C69.5745 25.5822 69.4714 25.7171 69.3367 25.8725C69.0676 26.183 68.6691 26.5792 68.1219 26.9701C67.0127 27.7624 65.3366 28.4995 63 28.4995C60.6584 28.4995 59.0664 27.7574 58.0397 26.9018C57.5384 26.484 57.1949 26.0585 56.9707 25.7222C56.8585 25.5539 56.7755 25.4071 56.7168 25.293C56.6875 25.2358 56.6641 25.1867 56.646 25.1469C56.637 25.127 56.6293 25.1094 56.6229 25.0943L56.6142 25.0736L56.6105 25.0646L56.6088 25.0605L56.608 25.0585C56.6077 25.0575 56.6073 25.0566 58 24.4995C59.3927 23.9424 59.3923 23.9415 59.392 23.9406L59.3913 23.9388L59.3899 23.9353L59.3873 23.9291L59.3831 23.919L59.3784 23.9083L59.378 23.9073C59.3782 23.908 59.3804 23.9126 59.3847 23.9209C59.3963 23.9435 59.4227 23.992 59.4668 24.0581C59.5551 24.1905 59.7116 24.39 59.9603 24.5972C60.4336 24.9917 61.3416 25.4995 63 25.4995C64.6634 25.4995 65.7373 24.9866 66.3781 24.5289C66.6556 24.3308 66.8604 24.1364 67 23.9854V23V20.7448C65.8662 21.5357 64.4872 21.9995 63 21.9995C59.134 21.9995 56 18.8655 56 14.9995C56 11.1335 59.134 7.99951 63 7.99951C64.4872 7.99951 65.8662 8.46333 67 9.2542V7.99951H70V14.9995ZM67 14.9995C67 17.2087 65.2091 18.9995 63 18.9995C60.7909 18.9995 59 17.2087 59 14.9995C59 12.7904 60.7909 10.9995 63 10.9995C65.2091 10.9995 67 12.7904 67 14.9995Z" fill="#4285F4"/>
<line x1="74.5" y1="22" x2="74.5" y2="1" stroke="#34A853" stroke-width="3"/>
<path fill-rule="evenodd" clip-rule="evenodd" d="M85 8C88.5074 8 91.4123 10.5796 91.921 13.945L91.4623 14.1535C91.1641 14.4186 90.7775 14.6318 90.4875 14.7824C90.1018 14.9827 89.6321 15.1973 89.1252 15.4143C88.1081 15.8498 86.8602 16.3297 85.6613 16.7721C84.4585 17.2158 83.288 17.6281 82.4194 17.9291C82.3842 17.9413 82.3494 17.9533 82.3152 17.9652C83.025 18.6082 83.9668 19 85 19C86.0144 19 86.9407 18.6224 87.6458 18H91.3264C90.2029 20.3649 87.7924 22 85 22C81.134 22 78 18.866 78 15C78 11.134 81.134 8 85 8ZM81.0073 15.2429C81.14 15.1972 81.2839 15.1476 81.4372 15.0945C82.2944 14.7974 83.4448 14.3922 84.6228 13.9575C85.8045 13.5215 86.9969 13.0622 87.9443 12.6565C88.0215 12.6235 88.0965 12.591 88.1692 12.5592C87.4378 11.6109 86.2902 11 85 11C82.7909 11 81 12.7909 81 15C81 15.0815 81.0024 15.1625 81.0073 15.2429Z" fill="#EA4436"/>
<path fill-rule="evenodd" clip-rule="evenodd" d="M116.429 2L110 22L113.145 22L114.752 17H123.248L124.855 22L128 22L121.571 2H116.429ZM119 3.78461L115.395 15H122.605L119 3.78461Z" fill="#5F6368"/>
<line x1="105.5" y1="22" x2="105.5" y2="2" stroke="#5F6368" stroke-width="3"/>
</svg>
